<?xml version="1.0" encoding="UTF-8" standalone="no"?>
<!-- Created with Inkscape (http://www.inkscape.org/) -->

<svg
   version="1.1"
   id="svg1"
   width="1280"
   height="800"
   viewBox="0 0 1280 800"
   sodipodi:docname="simdna-inkscape.svg"
   inkscape:version="1.3.2 (091e20e, 2023-11-25)"
   xmlns:inkscape="http://www.inkscape.org/namespaces/inkscape"
   xmlns:sodipodi="http://sodipodi.sourceforge.net/DTD/sodipodi-0.dtd"
   xmlns="http://www.w3.org/2000/svg"
   xmlns:svg="http://www.w3.org/2000/svg">
  <sodipodi:namedview
     id="namedview1"
     pagecolor="#ffffff"
     bordercolor="#000000"
     borderopacity="0.25"
     inkscape:showpageshadow="2"
     inkscape:pageopacity="0.0"
     inkscape:pagecheckerboard="0"
     inkscape:deskcolor="#d1d1d1"
     inkscape:zoom="1.409375"
     inkscape:cx="857.82705"
     inkscape:cy="344.47894"
     inkscape:window-width="1392"
     inkscape:window-height="1052"
     inkscape:window-x="0"
     inkscape:window-y="0"
     inkscape:window-maximized="0"
     inkscape:current-layer="svg1" />
  <defs
     id="defs1" />
  <path
     id="path1"
     style="fill:#000000"
     d="m 548.44922,71.876953 c -6.55175,-0.07209 -11.81077,7.799629 -6.17188,14.796875 2.27803,2.826629 2.27848,2.828316 1.48633,69.826172 -1.40131,118.51779 -1.48471,120 -6.76367,120 -4.5,0 -4.49914,-0.001 -4.75977,-43.91016 -0.2813,-47.39145 -0.22413,-46.92055 -5.65429,-46.39062 C 523.50077,186.50029 523.5,186.50129 523,231.5 c -0.5,44.99871 -0.5,45 -5.5,45 -5,0 -4.99924,-6.4e-4 -5.21484,-20 -0.49119,-45.56361 -2.32129,-96.24216 -3.82813,-106 -1.22884,-7.95754 -1.30592,-10.74671 -0.37109,-13.66016 3.13981,-9.78604 -7.51651,-17.48171 -14.77149,-10.66601 -4.61573,4.33624 -0.97248,14.12213 4.59961,12.35351 1.22448,-0.38863 2.08594,-0.22253 2.08594,0.4043 0,0.58707 0.62643,1.06836 1.39258,1.06836 2.16485,0 2.13564,-1.27946 1.60742,69.5 -0.5,66.99776 -0.5,67 -5,67 -4.5,0 -4.50052,-0.001 -4.75977,-50.25 -0.25925,-50.2484 -0.25925,-50.25 -5.25,-50.25 -4.9129,0 -7.16395,2.53853 -3.99023,4.5 1.09825,0.67875 1.16644,44.88713 0.11914,77 -0.61963,18.99936 -0.61914,19 -5.11914,19 -4.5,0 -4.50003,-0.001 -5.08008,-35.07031 -0.31902,-19.28812 -0.91022,-35.60572 -1.31445,-36.25977 -0.40512,-0.6555 0.19182,-2.3674 1.33008,-3.81445 2.59848,-3.30382 2.61613,-5.80224 0.0645,-8.35547 -5.54209,-5.54209 -14.5901,1.80887 -9.75,7.92188 0.96993,1.2247 1.13797,9.86909 0.75,38.57812 -0.5,36.99872 -0.50099,36.99933 -5.12109,37.29883 -6.0868,0.39455 -5.83861,1.8667 -5.91211,-35.29883 -0.12622,-63.7908 -1.68958,-88.5 -5.59766,-88.5 -2.36916,0 -2.36837,6.4e-4 -2.50781,20.25 -0.66298,96.27888 -1.05925,103.25 -5.86133,103.25 -4.5,0 -4.5003,-0.001 -4.75781,-63.38867 -0.1664,-40.96198 0.0953,-63.81311 0.73828,-64.58789 0.69825,-0.84134 0.25342,-1.89525 -1.49219,-3.53516 C 430.49271,141.23611 432.68637,135 438,135 c 5.31445,0 7.23313,5.38179 3.5,9.81836 -2.96921,3.5287 -3.1772,5.18164 -0.6543,5.18164 6.63916,0 8.45407,-12.25993 2.50782,-16.9375 -9.07349,-7.13689 -20.74357,3.78868 -14.35352,13.4375 2.3851,3.60138 2.41501,3.94242 0.52148,5.83594 -1.29994,1.30026 -3.43351,73.54265 -3.51171,118.91406 -0.01,5.74968 -0.009,5.75 -5.09766,5.75 -5.08837,0 -5.08797,-0.001 -4.80273,-36.77734 C 416.41677,200.55114 416.46768,201 411.5957,201 c -5.42771,0 -7.1808,2.84821 -5.69726,9.25391 0.85202,3.67848 1.12294,14.35785 0.9082,35.74609 -0.3062,30.49904 -0.30621,30.49948 -5.06641,30.80469 -6.16203,0.39511 -5.46194,7.7618 -6.7832,-71.30469 -0.63414,-37.94872 -1.47627,-79.35032 -1.87109,-92 -0.52116,-16.697512 -0.40234,-23.548027 0.43359,-25 C 399.73026,77.712442 386.54087,66.141407 378.98438,75.748047 375.19538,80.564829 378.35179,91 383.59766,91 c 2.01867,0 2.32452,11.7982 2.62109,101 0.28094,84.49744 0.28217,84.50014 -3.59961,84.81836 -6.44104,0.52805 -6.07497,4.94472 -6.61914,-79.61719 -0.5,-77.69801 -0.49924,-77.70078 -4.19336,-78.00781 -4.30577,-0.35788 -4.88125,14.88691 -4.08008,108.05078 0.41916,48.74169 0.41865,48.74245 -3.0957,53.03125 C 358.74638,287.45669 359,282.4185 359,391.94336 c 0,111.40461 -0.31063,105.55853 5.91797,111.49414 3.08191,2.93709 3.08203,2.93965 3.08203,80.75 0,77.81035 -4.3e-4,77.8125 3.39258,77.8125 4.82678,0 4.60742,3.33878 4.60742,-69.92773 0,-86.14198 -0.0625,-85.25849 5.90234,-84.8711 4.59681,0.29853 4.59744,0.30075 4.91016,59.79883 0.47736,90.82303 -0.40507,123.89411 -3.33398,125.00781 -6.57185,2.49861 -8.72925,10.83163 -4.02344,15.53711 3.7066,3.70693 9.54847,3.42712 12.95508,-0.62109 2.68364,-3.18971 3.49086,-8.62242 1.5664,-10.54688 -0.69165,-0.69165 -0.74488,-14.59455 -0.16797,-42.94922 0.46918,-23.05905 0.98629,-59.47837 1.15039,-80.92773 0.4908,-64.15349 0.66002,-66 6.04102,-66 4.5,0 4.4999,6.4e-4 5.20312,19 0.71621,19.34147 0.36878,41.67365 -0.76367,49.12695 -0.54217,3.56846 -0.31258,4.34772 1.68946,5.75 5.50741,3.85777 10.7274,0.0627 8.8457,-6.43164 -0.96002,-3.31302 -0.40745,-63.7095 0.61133,-66.82422 0.40657,-1.243 7.69593,-1.17196 8.95508,0.0859 0.20665,0.20665 0.69245,29.13652 1.08007,64.28516 0.55311,50.15592 0.99072,64.45571 2.03516,66.45703 0.73192,1.40249 1.33489,4.21215 1.33789,6.24219 0.003,2.02972 0.45586,3.96867 1.00586,4.30859 1.47809,0.91351 1.2145,3.6049 -0.54297,5.54688 -4.55783,5.03637 -1.7813,12.94049 5.22461,14.875 8.89712,2.45638 17.0325,-7.42816 11.80274,-14.33985 -1.5506,-2.04925 -0.45109,-4.58203 1.98828,-4.58203 1.71742,0 2.27151,-12.67824 3.63281,-83 0.63347,-32.72404 1.26454,-59.63195 1.40039,-59.79297 0.13585,-0.16102 1.76544,-0.51405 3.62109,-0.78515 6.43644,-0.94145 6.24319,-1.95093 6.70313,35.01367 0.22969,18.45942 0.69839,33.61061 1.04297,33.66601 7.04912,1.13332 6.6043,3.26607 6.89062,-33.01562 0.29222,-37.02863 0.1691,-36.35982 6.65039,-35.88477 4.71675,0.34571 3.98209,-9.99805 5.48828,77.29883 0.91877,53.23977 2.0339,66.04294 6.02344,69.12695 1.24209,0.96019 1.05874,1.60091 -1.23437,4.32617 -7.98575,9.49052 3.08324,21.71744 13.3789,14.7793 4.15934,-2.803 5.68608,-7.36277 4.14649,-12.3789 -0.89493,-2.91597 -0.74024,-4.68996 0.84179,-9.71094 1.59121,-5.04939 2.02359,-10.15013 2.43164,-28.64258 0.62561,-28.35231 1.49691,-87.92285 1.50391,-102.75 0.005,-11.24968 0.007,-11.25 4.86524,-11.25 5.64326,0 6.53051,10.18121 6.03515,69.20703 -0.14032,16.71943 0.0777,30.93806 0.48438,31.5957 0.99253,1.60597 7.59125,1.56012 7.72461,-0.0527 0.0568,-0.6875 0.1693,-23.52596 0.25,-50.75 0.1467,-49.4984 0.1468,-49.50047 5.39648,-49.80273 5.24968,-0.30226 5.25041,-0.30194 5.25195,16.5 8.4e-4,9.24092 0.29729,32.5634 0.65821,51.82421 0.59623,31.81906 0.50427,35.17151 -1.00196,36.67774 -2.63284,2.63317 -2.15404,7.61846 0.86524,8.99414 1.38818,0.6325 2.7776,2.15426 3.08594,3.38281 0.30803,1.22855 1.64645,3.25589 2.9746,4.50391 2.87208,2.69818 2.56971,11.04676 2.41797,-66.83008 -0.10765,-55.24808 -0.10713,-55.25 4.94532,-55.25 5.05213,0 5.05273,0.001 5.05273,64.09375 0,63.2507 -0.0262,64.10104 -2,64.61719 -2.50771,0.65578 -2.60622,2.96183 -0.16016,3.73828 6.09427,1.93429 4.64098,10.55078 -1.77929,10.55078 -5.55208,0 -8.29349,-5.6248 -4.56055,-9.35742 1.44828,-1.44828 2.09043,-4.64258 0.93359,-4.64258 -6.11041,0 -8.04846,11.19556 -2.79297,16.13281 8.82919,8.29427 21.61997,-4.72665 13.78711,-14.03515 -2.84194,-3.3777 -2.50794,-5.09766 0.98829,-5.09766 2.66685,0 2.96847,-6.05017 4.21875,-84.67773 0.65427,-41.17647 0.65385,-41.17824 3.00976,-41.76954 3.00228,-0.7532 7.35861,0.31778 7.34961,1.80665 -0.004,0.62755 0.27756,17.68685 0.625,37.9082 0.48176,28.03879 0.33463,37.82869 -0.62109,41.24219 -1.0032,3.58165 -1.00186,4.77855 -0.004,5.98437 1.54053,1.85623 8.96542,2.06497 9.09375,0.25586 0.13605,-1.91804 0.51621,-34.43089 0.72461,-62 0.18709,-24.74936 0.18848,-24.75 5.02539,-24.75 5.25109,0 6.16211,17.41888 6.16211,117.72461 0,33.39542 0,33.3963 3.75,33.08594 3.75,-0.31037 3.74953,-0.31311 4.00586,-75.56055 0.25632,-75.24744 0.25766,-75.25 5.08789,-75.25 4.83022,0 4.82874,0.001 5.49219,51.16406 1.4169,109.26586 1.0444,133.54522 -2.07617,135.04102 -5.77169,2.7663 -6.5401,9.77864 -1.57422,14.38086 7.9939,7.40848 19.42248,-3.00069 13.26953,-12.08594 -3.82597,-5.64889 -1.68979,-189.0112 2.24023,-192.31836 3.99368,-3.36046 6.80243,-9.28592 6.82031,-14.39258 0.025,-7.00314 -1.29198,-6.69453 29.11915,-6.83594 27.56752,-0.12787 27.56917,-0.12692 34.46875,3.34766 32.08842,16.15979 76.54899,7.82919 96.97851,-18.16992 16.41804,-20.8938 17.37878,-27.75677 17.39258,-124.13086 0.0136,-94.89123 1.89035,-85 -16.11914,-85 -14.85472,2e-5 -14.85547,0.001 -14.85547,40 0,21.99936 -0.27094,40 -0.60156,40 -0.33063,0 -3.65483,-2.82609 -7.38672,-6.28125 -23.41616,-21.67972 -67.89042,-21.24484 -91.6836,0.89844 C 676.5673,340.7725 638.5,340.67734 638.5,332.5 c 0,-5 9.6e-4,-4.99934 26.25,-5.26562 28.82784,-0.2928 27.12239,0.12524 25.35547,-6.23438 -0.69456,-2.5 -0.69559,-2.5 -26.15039,-3 -27.96414,-0.54929 -27.57268,-0.41766 -25.51367,-8.62109 1.05698,-4.21133 54.5747,-3.64368 58.55859,0.62109 4.34131,4.64739 11.44109,3.17863 13.95312,-2.88672 3.63943,-8.78605 -5.99879,-16.79878 -13.29882,-11.05664 -2.50151,1.96814 -3.80967,2.05251 -30.26953,1.97461 C 636.90813,297.94155 638,298.09485 638,293.90039 c 0,-3.84385 -2.98899,-9.61423 -6.9082,-13.33789 -3.09154,-2.93709 -3.09184,-2.93869 -3.14844,-51.5 -0.0311,-26.70864 -0.42077,-67.68814 -0.86719,-91.0625 -0.77658,-40.661581 -0.73278,-42.603059 1.05469,-44.884766 3.52181,-4.495546 1.73763,-11.000983 -3.73047,-13.595703 -9.62545,-4.567567 -16.91739,7.484355 -9.0293,14.923828 4.34224,4.095126 4.89936,20.876481 3.85352,116.056641 -0.72518,65.99776 -0.72461,66 -5.22461,66 -4.5,0 -4.5,-0.001 -5,-72 -0.5,-71.99776 -0.5,-72.00018 -4.25,-72.31055 -3.75,-0.31036 -3.75047,-0.31004 -3.75195,11.5 -0.004,28.77634 -1.20316,130.93142 -1.55078,132.06055 -0.23382,0.75948 -2.16282,1.25 -4.91602,1.25 -4.61448,0 -5.89011,-20.66118 -4.81641,-78 0.10813,-5.77468 0.22392,-12.3 0.25782,-14.5 0.0955,-6.19368 -5.56512,-9.76332 -9.40039,-5.92773 -1.77024,1.76992 -2.1597,9.43991 -0.56055,11.03906 0.658,0.65803 0.91982,15.9989 0.75,43.94922 -0.26088,42.93752 -0.26172,42.93935 -5.01172,43.24414 -4.57631,0.29365 -4.75708,0.20191 -4.92188,-2.5 -0.0941,-1.54263 -0.27011,-3.47969 -0.39257,-4.30469 -0.12246,-0.825 -0.27158,-35.31435 -0.33008,-76.64062 -0.1063,-75.13935 -0.10485,-75.1428 -2.52539,-75.75 -5.86708,-1.47254 -5.56653,-4.34578 -5.71875,54.74804 C 561.60827,270.59608 561.27508,276.5 556,276.5 c -6.34989,0 -7.80405,-182.305846 -1.50586,-188.791016 4.52015,-4.654093 4.70269,-8.664629 0.58203,-12.785156 -2.11578,-2.115719 -4.44293,-3.022843 -6.62695,-3.046875 z m 0.16406,3.496094 c 0.53222,-0.03753 1.0975,0.02689 1.6875,0.210937 4.25922,1.328637 5.09236,6.326872 1.47656,8.859375 C 548.91751,86.446627 548.40751,86.407446 546,84 c -3.16895,-3.16886 -1.11228,-8.364278 2.61328,-8.626953 z m -161.20312,1.712891 c 0.78164,0.131766 1.52524,0.446047 2.15039,0.964843 1.90134,1.578207 1.83218,5.412015 -0.13282,7.376953 -3.67565,3.675872 -9.57742,-0.244446 -7.84179,-5.208984 0.79845,-2.283883 3.47927,-3.528206 5.82422,-3.132812 z m 234.06445,5.25 c 3.34309,0.554797 5.95464,5.427424 2.95117,8.746093 -1.90517,2.105124 -2.81779,2.236434 -6.17578,0.886719 -2.94014,-1.181759 -3.0415,-5.943212 -0.18164,-8.53125 1.09616,-0.991985 2.29189,-1.286505 3.40625,-1.101562 z M 498.77539,126.56055 C 501.73417,126.0886 505,128.20786 505,131.5 c 0,1.24031 -0.5625,2.70583 -1.25,3.25586 -5.86772,4.69437 -12.94417,-1.56169 -7.69922,-6.80664 0.78563,-0.78563 1.73835,-1.23136 2.72461,-1.38867 z m 84.97461,55.6289 c 0.9625,0.18536 1.66118,0.78175 1.55273,1.32422 C 584.95521,185.25201 582,185.23979 582,183.5 c 0,-1.02996 0.6554,-1.52135 1.75,-1.31055 z M 469.26172,195.1875 c 1.2,-0.2311 1.73828,0.30718 1.73828,1.73828 0,1.43109 -0.64313,2.07422 -2.07422,2.07422 -2.56265,0 -2.27079,-3.31049 0.33594,-3.8125 z m -153.99414,51.04688 c -27.76685,0.26553 -27.76724,0.26686 -28.03516,23.93945 -0.24812,21.92314 -0.13727,23.70826 1.5,24.14258 0.97236,0.25797 13.4679,0.40437 27.76758,0.32617 25.99904,-0.1422 25.99977,-0.14331 26.26758,-24.4082 0.26782,-24.26521 0.26686,-24.26585 -27.5,-24 z m 587.25976,47.0664 c -6.2e-4,0.1609 -0.004,0.32185 0,0.48242 2.7e-4,0.0101 0.002,0.0211 0.002,0.0312 0.0207,-0.0426 0.0397,-0.0886 0.0605,-0.13086 0.023,-0.12598 -0.0638,-0.25534 -0.0625,-0.38281 z M 498,296 c 123.73671,0 115.5424,-0.47391 118.82812,6.86523 1.39566,3.11725 2.4373,148.8923 1.25391,175.48438 -0.0453,1.0175 -1.61242,3.38 -3.48242,5.25 -3.4,3.4 -3.4032,3.40128 -100.25,3.23828 -53.2659,-0.0896 -99.10329,-0.42714 -101.85742,-0.75 -0.32418,-0.038 -0.50674,-0.11991 -0.79883,-0.16797 -0.26719,0.1106 -0.59629,0.17925 -0.99805,0.17383 -0.40193,-0.005 -0.21007,-0.002 -0.57422,-0.01 -0.45132,-0.0154 -0.90669,-0.0301 -1.35351,-0.0996 -0.28645,-0.0516 -0.57258,-0.13135 -0.86524,-0.11915 -0.41345,0 -0.82677,3.5e-4 -1.24023,-0.002 -0.45634,-0.002 -0.91287,-0.003 -1.36914,-0.0117 -0.55635,-0.013 -1.11257,-0.0347 -1.66797,-0.0703 -0.90174,-0.0624 -1.8074,-0.12992 -2.68359,-0.36719 -0.70789,-0.21932 -1.38743,-0.51712 -2.04493,-0.85937 -0.61773,-0.30353 -1.20078,-0.66402 -1.79882,-1.00391 -0.41398,-0.23032 -0.8473,-0.42077 -1.27539,-0.62305 -0.39898,-0.20475 -0.78214,-0.43876 -1.18165,-0.64257 -0.48503,-0.22582 -0.96459,-0.47213 -1.40429,-0.7793 -0.49258,-0.31061 -1.00772,-0.58496 -1.51367,-0.87305 -0.62641,-0.36907 -1.21336,-0.79689 -1.73243,-1.30859 -0.43773,-0.43404 -0.8349,-0.90689 -1.27343,-1.33984 -0.37739,-0.40646 -0.71218,-0.84787 -1.08594,-1.25782 -0.37379,-0.46159 -0.68007,-0.96672 -1.02539,-1.44922 -0.3891,-0.51446 -0.79895,-1.01159 -1.18359,-1.52929 -0.48889,-0.62135 -1.01519,-1.21491 -1.46876,-1.86328 -0.42164,-0.60537 -0.83408,-1.21679 -1.20117,-1.85743 -0.3362,-0.57707 -0.66557,-1.15781 -0.97461,-1.75 -0.14863,-0.33556 -0.26601,-0.67561 -0.35351,-1.03125 -0.15577,-0.35131 -0.32405,-0.6981 -0.44336,-1.06445 -0.0674,-0.25285 -0.17751,-0.49043 -0.25391,-0.74023 -0.19525,-0.41098 -0.39867,-0.81929 -0.54297,-1.25196 -0.2044,-0.71028 -0.39659,-1.42916 -0.21093,-2.16992 0.0663,-0.23072 0.13984,-0.45999 0.20898,-0.68945 -0.69711,-0.82013 -0.96846,-1.74273 -0.43359,-2.46485 -0.0419,-0.089 -0.0707,-0.99064 -0.11133,-1.17578 l -0.002,-0.002 c -0.35729,-0.33384 -0.52499,-0.98362 -0.23243,-1.86133 0.0144,-0.043 0.0287,-0.0859 0.043,-0.1289 -1.96657,-17.42295 -2.18444,-149.368 0.0723,-153.73047 C 382.77937,295.66522 376.0036,296 498,296 Z m 205.58398,3.5 c 3.50209,0 5.65156,4.30494 3.46485,6.93945 -2.21658,2.67082 -6.90023,2.00409 -7.67774,-1.09375 -0.89758,-3.57591 0.73796,-5.8457 4.21289,-5.8457 z m 175.8379,0.23828 c -0.0165,0.0116 -0.0384,0.0276 -0.0547,0.0391 -0.0319,0.19391 -0.0424,0.33978 -0.0352,0.3711 0.01,0.0163 0.0389,-0.0837 0.0898,-0.41016 z m 4.95312,9.46484 c 0.0754,0.0524 0.14122,0.14035 0.2168,0.19141 -1.5e-4,-0.0595 0.0116,-0.11834 0.0137,-0.17773 -0.0768,-0.004 -0.15373,-0.008 -0.23047,-0.0137 z m 6.76562,2.16993 c -0.0829,0.0433 -0.16192,0.0914 -0.24023,0.14062 0.0314,0.002 0.0642,-3.1e-4 0.0957,0.002 0.0489,-0.0475 0.0999,-0.0921 0.14453,-0.14257 z m -655.29882,2.8125 c -9.38813,-0.10762 -21.90494,-0.0478 -38.5918,0.0332 -74.64019,0.36217 -72.36077,0.15169 -84.28711,7.80469 -28.865827,18.52311 -25.981712,82.66312 4.33984,96.50976 11.32209,5.17054 14.84614,5.59054 55.19727,6.58008 44.00342,1.0791 44.5,1.1999 44.5,10.88672 0,10.59662 -1.9815,10.83628 -90.25,10.95703 -30.749008,0.0421 -30.75,0.0437 -30.75,21.87695 0,12.00802 0.3375,22.17285 0.75,22.5879 1.571961,1.58144 130.18495,-0.0181 137.38086,-1.70899 C 259.11688,483.84222 270.5,466.87415 270.5,435.5 c 0,-18.74866 -3.39826,-29.84704 -12.08203,-39.45898 -11.68774,-12.93696 -25.83735,-16.01951 -73.60352,-16.03321 -35.24339,-0.0101 -36.7163,-0.41514 -36.7832,-10.12304 -0.0711,-10.32299 -3.53741,-9.73428 59.41602,-10.08008 30.46221,-0.16733 55.76282,-0.68183 56.2207,-1.14258 0.45788,-0.46074 0.76996,-6.31106 0.69336,-13 -0.0766,-6.68893 -0.1891,-16.57398 -0.25,-21.96484 -0.083,-7.3516 -0.10515,-9.18889 -28.26953,-9.51172 z m 79.9082,0.0488 c -27.24904,0.26575 -27.25043,0.2685 -27.50586,88.51562 -0.25544,88.24712 -0.25448,88.25 27.25,88.25 27.50447,3e-5 27.50586,-0.001 27.50586,-88.51562 0,-88.51351 -9.6e-4,-88.51607 -27.25,-88.25 z m 615.77148,0.88281 c -16.73842,-0.39354 -33.9902,4.95137 -46.73632,16.64843 -8.09065,7.42478 -8.09121,7.42485 -9.69336,-1.9707 C 873.0679,317.92687 874.42677,319 861.43164,319 849.99935,319 850,319.00288 850,404.5 c 0,85.49712 3.2e-4,85.5 15,85.5 14.99968,0 15.00116,-0.001 15.01562,-54.25 0.0182,-66.72147 0.52998,-69.82559 13.44727,-81.49805 14.63704,-13.22619 42.92801,-14.02801 55.70703,-1.57812 10.03078,9.77241 10.81327,15.749 10.82227,82.57617 0.008,54.7484 0.008,54.75 15.57031,54.75 15.56129,0 15.56108,-0.001 15.18164,-61.75 -0.42298,-68.83259 -0.52663,-69.9523 -7.85156,-84.46289 -9.17283,-18.17126 -29.85008,-28.16394 -51.3711,-28.66992 z m 153.59762,1.16992 c -25.1187,1.08174 -54.8484,9.94489 -53.625,17.10937 0.2914,1.70651 1.1397,7.05609 1.8848,11.88672 1.6646,10.79245 1.1594,10.357 8.4492,7.28907 13.7804,-5.8001 22.8652,-7.78759 38.0528,-8.32422 32.8692,-1.16149 44.6009,8.00754 45.8789,35.86523 0.4869,10.61333 0.4861,10.61386 -30.8868,11.18164 -23.7951,0.4307 -33.1727,0.96746 -38.8281,2.2207 -57.94499,12.84414 -51.7687,92.50557 7.709,99.43555 22.7728,2.65334 45.4296,-4.61788 60.7344,-19.49219 5.5648,-5.40802 6.023,-5.11522 6.9531,4.4375 1.2867,13.21619 0.076,12.10352 13.1797,12.10352 11.462,0 11.4609,-0.001 11.1504,-64.25 -0.3105,-64.24808 -0.3106,-64.25032 -2.6309,-70.75 -8.8625,-24.82555 -26.8445,-36.89201 -57.6406,-38.67383 -3.2972,-0.19077 -6.792,-0.19235 -10.3809,-0.0391 z M 645.13086,346.76367 C 654.85288,346.51149 673,347.12308 673,348.03711 c 0,0.43869 -0.88439,2.86027 -1.96484,5.38086 -2.22752,5.19628 -0.2586,4.87803 -22.53516,3.63867 -9.99968,-0.55633 -9.99932,-0.55611 -10.29883,-4.64258 -0.18264,-2.49203 0.20753,-4.47844 1,-5.08984 0.38441,-0.29658 2.68891,-0.47649 5.92969,-0.56055 z m 82.59766,2.16602 c 7.3002,0.32752 14.1698,0.36883 23.98046,0.14062 23.52935,-0.54734 37.91406,29.13828 34.26563,70.71289 -1.96316,22.37054 -10.00327,35.40321 -25.32227,41.04297 -19.23716,7.08249 -45.2503,-2.06396 -49.67773,-15.90429 -0.45739,-0.33494 -0.90839,-0.82575 -1.31445,-1.50196 -0.71522,-1.19101 -1.36926,-2.41759 -2.07032,-3.61719 -0.51953,-0.83679 -1.03335,-1.67941 -1.46289,-2.5664 -0.35571,-0.79079 -0.51399,-1.64394 -0.77734,-2.46485 -0.10738,-0.36073 -0.25951,-0.71408 -0.49219,-1.01171 -0.46316,-0.58482 -0.83207,-1.23326 -1.11914,-1.91993 -0.26,-0.6212 -0.34705,-1.29019 -0.40625,-1.95507 -0.0331,-0.43434 -0.0444,-0.87098 -0.0508,-1.30665 -0.0416,-0.22532 -0.16776,-0.43 -0.18359,-0.6621 -0.31345,-0.76639 -0.47066,-1.58203 -0.66993,-2.38282 -0.19165,-0.80087 -0.34824,-1.60908 -0.45312,-2.42578 -0.0898,-0.81882 -0.10394,-1.64397 -0.11914,-2.4668 0.0461,-0.63304 -0.035,-1.22447 -0.14453,-1.83984 -0.13115,-0.7427 -0.22209,-1.49013 -0.27539,-2.24219 -0.0413,-0.60338 -0.0569,-1.20797 -0.0684,-1.8125 -0.009,-0.51921 -0.0107,-1.03931 -0.0117,-1.55859 -10e-4,-0.36345 -0.002,-0.7264 -0.002,-1.08984 -9e-4,0.0184 -0.006,-0.002 -0.0273,-0.0606 -0.44517,-1.24095 -0.36684,-2.23787 0,-2.93359 -0.6352,-1.91586 1.09965,-3.10352 5.00195,-3.10352 8.26409,0 13.47105,1.1277 13.9668,3.02344 1.44142,5.51168 12.3875,7.20828 16.40039,2.54297 7.05514,-8.2021 -3.55756,-18.30912 -13.71093,-13.0586 -3.23616,1.67349 -19.36237,1.10581 -21.73438,-0.76562 -4.41761,-3.48532 -0.29313,-26.24922 6.29492,-34.74219 9.57632,-12.34523 12.54283,-14.4131 20.1836,-14.07031 z m -127.44532,5.26367 c -5.26247,-0.38175 -5.61418,0.62923 -5.1289,14.75586 0.38044,11.07477 0.42674,10.94432 -2.79883,7.91406 -3.14061,-2.95046 -11.00041,-4.84322 -16.17774,-3.89648 -22.63766,4.13945 -24.37518,41.76306 -2.29296,49.65429 8.241,2.94513 17.63768,0.90888 23.67578,-5.1289 6.91276,-6.91308 7.51871,-10.15728 7.20703,-38.55469 -0.2682,-24.43652 -0.26746,-24.43826 -4.48438,-24.74414 z m -137.15429,0.16992 C 462.01736,354.5462 460.92827,355.07173 460,356 c -1.1,1.1 -2,2.9 -2,4 0,1.1 0.9,2.9 2,4 3.71184,3.71184 10,1.41421 10,-3.6543 0,-3.99451 -3.53675,-6.53092 -6.87109,-5.98242 z M 652,366.5 c 13.49968,0 13.49976,2e-5 13.1543,4.5 -0.19,2.47499 -0.865,4.83029 -1.5,5.23438 -0.635,0.40377 -6.16141,0.742 -12.28125,0.75 -12.63039,0.0174 -13.69351,-0.51868 -13.1875,-6.66407 C 638.50008,366.50084 638.50032,366.5 652,366.5 Z m -217.88477,6.58008 C 419.43505,372.92007 412.5,377.70462 412.5,387.99023 c 0,9.59716 4.26624,12.88794 19.4668,15.01758 8.57012,1.20072 12.0332,3.03032 12.0332,6.35938 0,5.82324 -7.39917,7.74704 -19.99219,5.19531 -9.21831,-1.86794 -8.74132,-1.9796 -9.97461,2.32031 -1.13332,3.95166 1.00441,5.62331 9.00782,7.04102 18.92263,3.35172 32.64031,-4.17628 30.59375,-16.78906 -1.28809,-7.93755 -6.84555,-11.5599 -19.89258,-12.96289 C 423.99611,393.12363 422,392.06372 422,387.93359 c 0,-5.48231 13.1077,-8.23131 22.92578,-4.80859 3.86966,1.34897 4.90519,0.54105 5.28906,-4.13086 0.34852,-4.24175 -3.83923,-5.78044 -16.09961,-5.91406 z m 66.7168,0.96875 c -5.12507,-0.0663 -9.869,1.45887 -11.69922,4.60742 -0.98682,1.69766 -1.07356,1.66129 -1.10156,-0.46094 -0.028,-2.12222 -0.40751,-2.28065 -4.78125,-2 -4.75,0.30479 -4.74905,0.30436 -5.06445,22.16211 -0.17346,12.02179 -0.0671,22.51089 0.23828,23.30664 0.40158,1.04651 1.87361,1.36139 5.3164,1.14063 4.7602,-0.30521 4.76069,-0.30626 5.03516,-17.75391 0.30413,-19.33403 0.51463,-20.00071 6.97461,-22.13281 12.51003,-4.12878 15.23905,2.02731 15.24805,34.38672 0.002,5.80447 0.002,5.80479 4.75195,5.5 4.75,-0.30479 4.75,-0.30475 5.25,-17.9043 0.55298,-19.46461 0.7711,-20.15255 6.99023,-22.01562 11.01708,-3.30089 13.85237,1.14366 14.67774,23.0039 0.64979,17.21014 0.65146,17.20987 4.74219,16.91016 5.46675,-0.40056 6.50957,-31.18254 1.35351,-39.95313 -5.86622,-9.9792 -20.74794,-11.84562 -29.42773,-3.6914 -2.19131,2.0583 -2.19165,2.05788 -4.51367,-0.16602 -3.35803,-3.2157 -8.86485,-4.87311 -13.99024,-4.93945 z m -36.23047,1.13281 c -2.44261,-0.20001 -4.21024,0.17339 -4.73437,1 -0.9864,1.55565 -1.17658,45.17726 -0.20117,46.15234 0.36666,0.36667 2.62624,0.66602 5.01953,0.66602 6.52664,0 6.44423,-47.28383 -0.084,-47.81836 z m 116.23633,5.93945 c 2.4078,-0.12841 4.99231,0.44911 7.60156,1.84571 9.4986,5.08335 8.84736,26.50851 -0.92968,30.59375 -10.78182,4.50474 -19.43369,-2.28406 -19.48829,-15.29102 -0.0421,-10.02551 5.59333,-16.76319 12.81641,-17.14844 z M 651,386 c 11.99968,0 12,3.2e-4 12,5.5 0,5.49968 -3.2e-4,5.5 -12,5.5 -11.99968,0 -12,-3.2e-4 -12,-5.5 0,-5.49968 3.2e-4,-5.5 12,-5.5 z m 80.32031,14.90625 c 0.87146,0.13149 1.73268,0.54518 2.48047,1.29297 1.90147,1.90147 1.45753,6.59238 -0.73437,7.76562 C 729.02099,412.12988 726,410.43506 726,406 c 0,-3.33628 2.70624,-5.48822 5.32031,-5.09375 z M 650.39258,406 C 662.94322,406 663,406.02973 663,412.58203 663,416.00024 662.99968,416 651,416 c -11.99968,0 -12,0 -12,-5 0,-5 -1.1e-4,-5 11.39258,-5 z M 1098.5,413.55078 c 26.9999,-0.0507 27.0003,-0.0508 26.9023,10.44922 -0.2215,23.69628 -12.4976,38.23817 -35.4023,41.93555 -30.5213,4.92658 -51.7554,-14.97366 -40.3652,-37.83008 6.188,-12.41743 13.1354,-14.48759 48.8652,-14.55469 z m -447.23047,10.61328 c 6.20581,-0.22955 12.55458,1.32921 13.125,4.89649 0.35714,2.23305 0.38642,4.48337 0.0684,5 C 664.14236,434.57718 658.28363,435 651.44141,435 639.00075,435 639,435 639,430 c 0,-3.58838 6.06403,-5.60638 12.26953,-5.83594 z M 653.36328,444 C 667.97084,444 671,445.594 671,453.2832 c 0,0.79876 -28.77911,0.84965 -30.75,0.0547 -0.73519,-0.2968 -1.25,-2.32453 -1.25,-4.92187 C 639,443.9992 638.99978,444 653.36328,444 Z m 14.89063,18.64453 c 8.65461,-0.009 9.22148,1.09659 12.57421,5.76563 3.29644,4.58989 3.29601,4.58984 -19.29687,4.58984 -24.77311,0 -23.96168,0.21463 -23.35156,-6.1543 0.32046,-3.34488 0.32095,-3.3457 18.32031,-3.91211 5.08512,-0.16002 8.86893,-0.28609 11.75391,-0.28906 z M 379.5,465 c 0.275,0 0.5,0.225 0.5,0.5 0,0.275 -0.225,0.5 -0.5,0.5 -0.275,0 -0.5,-0.225 -0.5,-0.5 0,-0.275 0.225,-0.5 0.5,-0.5 z m 9.85938,1.23438 c -0.009,0.005 -0.0168,0.0111 -0.0254,0.0156 0.009,0.0215 0.0183,0.0428 0.0274,0.0645 0.003,-0.0267 -0.003,-0.0534 -0.002,-0.0801 z m 7,14.19531 c -0.012,0.0138 -0.0173,0.0351 -0.0293,0.0488 0.0424,0.0247 0.0865,0.0458 0.1289,0.0703 -0.0367,-0.0396 -0.0675,-0.0792 -0.0996,-0.11914 z m 103.71679,25.21679 C 503.32,507.07482 503,519.40022 503,581.46094 c 0,73.15335 -0.1292,76.33402 -3.04688,74.48828 -0.79842,-0.50529 -2.39226,-0.9256 -3.54101,-0.9336 -4.29751,-0.0315 -5.20282,-147.52856 -0.91211,-148.60546 2.01681,-0.50619 3.4949,-1.23979 4.57617,-0.76368 z M 440.00586,507 c 5.00625,0 5.00657,0.001 4.75,72.25 -0.25658,72.24776 -0.25666,72.2491 -4.34766,72.54883 C 435.33506,652.17054 435,646.64987 435,562.83984 435,507.00147 434.99928,507 440.00586,507 Z m -28.44727,67 c 0.79254,0 1.44141,0.675 1.44141,1.5 0,1.50623 -2.11148,2.05649 -3.30664,0.86133 C 408.76012,575.42809 409.88826,574 411.55859,574 Z m 55.10938,4.19531 c -0.26748,0.0451 -0.73756,0.48151 -1.54883,1.33203 -3.19569,3.35031 -3.86113,17.8401 -0.91406,19.9043 5.24992,3.67741 10.46112,1.07896 9.30859,-4.64062 -1.27442,-6.32487 -1.49795,-6.66182 -4.30859,-6.47266 -2.0982,0.14121 -2.70508,-0.26655 -2.70508,-1.81836 0,-1.43093 0.6402,-1.97672 2.25,-1.91992 2.78719,0.0984 2.97496,-2.21521 0.25,-3.08008 -1.1,-0.34913 -2,-1.3789 -2,-2.28906 0,-0.71365 -0.0645,-1.06076 -0.33203,-1.01563 z m 1.89258,13.52735 c 0.49056,0.008 0.97973,0.22445 1.38672,0.71484 0.70116,0.8456 1.01458,2.21682 0.69531,3.04883 -0.76161,1.98472 -3.54011,1.94142 -4.31055,-0.0644 -0.72247,-1.88275 0.75684,-3.72379 2.22852,-3.69922 z m 57.32617,8.84765 c 1.21787,-0.75268 3.4386,2.09556 2.64062,3.38672 C 527.43275,605.72811 525,605.1081 525,603.05859 c 0,-1.06754 0.39904,-2.18688 0.88672,-2.48828 z M 439.18945,654 c 4.27305,0 7.18175,5.87254 4.56055,9.20703 -3.34245,4.25201 -10.68668,1.91379 -10.73438,-3.41797 C 432.99637,657.59764 436.83327,654 439.18945,654 Z m 56.70703,5.05664 C 499.02053,658.44314 502,660.65352 502,664.5 c 0,2.36732 -0.59878,3.7503 -1.93359,4.46484 -6.4623,3.45851 -12.53636,-3.51589 -7.23829,-8.31054 0.96823,-0.87624 2.02733,-1.39316 3.06836,-1.59766 z M 622,696 c 4.87995,0 6.80271,5.05988 3.17188,8.3457 C 621.76722,707.42688 617,705.56268 617,701.15039 617,697.70227 618.65251,696 622,696 Z m -236.82227,0.14258 c 3.42244,-0.29838 6.59037,2.76408 5.23633,6.63867 -1.30667,3.73905 -6.50252,4.35904 -8.81836,1.05273 -2.05673,-2.93653 -2.01139,-4.1491 0.23242,-6.17968 1.0393,-0.94055 2.20911,-1.41226 3.34961,-1.51172 z" />
</svg>
